<?xml version="1.0" encoding="utf-8"?>
<!-- Generator: Adobe Illustrator 24.1.0, SVG Export Plug-In . SVG Version: 6.00 Build 0)  -->
<svg version="1.1" id="Layer_1" xmlns="http://www.w3.org/2000/svg" xmlns:xlink="http://www.w3.org/1999/xlink" x="0px" y="0px"
	 viewBox="0 0 792 360" style="enable-background:new 0 0 792 360;" xml:space="preserve">
<style type="text/css">
	.st0{fill:#6E298C;}
	.st1{fill:#FFFFFF;}
</style>
<path class="st0" d="M648,50H144c-34.7,0-67.4,13.5-91.9,38.1C27.5,112.6,14,145.3,14,180c0,34.7,13.5,67.4,38.1,91.9
	C76.6,296.5,109.3,310,144,310h504c34.7,0,67.4-13.5,91.9-38.1c24.6-24.6,38.1-57.2,38.1-91.9c0-34.7-13.5-67.4-38.1-91.9
	C715.4,63.5,682.7,50,648,50z"/>
<path class="st1" d="M648,36H144C64.5,36,0,100.5,0,180v0c0,79.5,64.5,144,144,144h504c79.5,0,144-64.5,144-144v0
	C792,100.5,727.5,36,648,36z M648,310H144c-34.7,0-67.4-13.5-91.9-38.1C27.5,247.4,14,214.7,14,180c0-34.7,13.5-67.4,38.1-91.9
	C76.6,63.5,109.3,50,144,50h504c34.7,0,67.4,13.5,91.9,38.1c24.6,24.6,38.1,57.2,38.1,91.9c0,34.7-13.5,67.4-38.1,91.9
	C715.4,296.5,682.7,310,648,310z"/>
<g>
	<path class="st1" d="M408.8,132.6c-0.2-16.6-13.9-30.1-30.5-30.1c-16.5,0-30.2,13.5-30.5,30.1v17.9l1.5-1c4.4-2.8,9.2-4.9,14.2-6.4
		l0.7-0.2v-10.2c0.1-7.7,6.5-13.9,14.1-13.9c7.7,0,14.1,6.3,14.2,14.1c0,0.7,0,3,0,5.8v4.2l0.7,0.2c5,1.4,9.8,3.5,14.2,6.4l1.5,1
		v-1.7C408.8,138.1,408.8,133.8,408.8,132.6z"/>
	<path class="st1" d="M378.3,147c-26.7,0-48.4,21.7-48.4,48.4s21.7,48.4,48.4,48.4s48.4-21.7,48.4-48.4S405,147,378.3,147z
		 M395,208.9c-2.4,1.7-0.6,6-0.1,8.5c-4.8-0.7-9.4-1.9-14.2-2c-3-0.1-0.7,8.1-0.7,16.6c-0.9,0.4-2.8,0.3-3.5,0
		c0-7.6,2.4-16.7-0.7-16.6c-4.8,0.1-9.5,1.3-14.2,2c0.9-4.9,1.7-7-2.3-10.2s-8-6.4-11.9-9.6c6.3-2.2,2.8-7.7,1.4-12.7
		c2.1,0.4,5.6,2,7.7,1.6c2.8,0.9,2.9-2.9,3.4-4.6c2,2.2,3.9,4.4,5.9,6.6c0.9,1,3.8,2.9,3.2,0c-0.9-5.3-2-10.6-2.9-15.9
		c1.8,0.9,5.3,3.7,6.8,1.4c1.7-2.7,3.5-5.4,5.2-8.1c1.7,2.7,3.5,5.4,5.2,8.1c1.5,2.3,5-0.5,6.8-1.4c-1,5.3-2,10.6-2.9,15.9
		c-0.7,3.8,3.2,0.1,4-0.8c1.7-1.9,3.4-3.9,5.1-5.8c0.7,2.4,0.6,5.1,3.7,4.6c2.5-0.5,4.9-1,7.4-1.5c-1.3,5-4.8,10.5,1.4,12.7
		C404.4,201.3,399.6,205.1,395,208.9z"/>
</g>
<g>
	<path class="st1" d="M136.7,167.2c4.5,0,8.8,1.4,12.3,4.1l8.9-12c-6.2-4.7-13.6-7.1-21.3-7.1c-19.7,0-35.6,16-35.6,35.6
		s16,35.6,35.6,35.6c7.5,0,14.7-2.3,20.8-6.7l-8.7-12.1c-3.5,2.6-7.7,3.9-12.1,3.9c-11.4,0-20.7-9.3-20.7-20.7
		S125.3,167.2,136.7,167.2z"/>
	<path class="st1" d="M290.6,208.7c-11.4,0-20.7-9.3-20.7-20.7s9.3-20.7,20.7-20.7c4.5,0,8.8,1.4,12.4,4.1l8.9-12
		c-6.2-4.7-13.6-7.1-21.3-7.1c-19.7,0-35.6,16-35.6,35.6s16,35.6,35.6,35.6c7.5,0,14.7-2.3,20.8-6.7l-8.7-12.1
		C299.2,207.3,295,208.7,290.6,208.7z"/>
	<path class="st1" d="M231.9,223.1h14.9v-58.3c0,0-0.6-6.1-5.1-8.6s-9.8-2.1-9.8-2.1L231.9,223.1L231.9,223.1z"/>
	<path class="st1" d="M206,153.6c-3.4-1.1-7-1.7-10.8-1.7c-19.7,0-35.6,16-35.6,35.6s16,35.6,35.6,35.6c4.2,0,10.3-0.1,13.8-0.1h12
		v-96.6c0,0-6.3-0.7-10.7,2.5c-4.5,3.1-4.2,10.1-4.2,10.1L206,153.6L206,153.6z M174.5,187.5c0-11.4,9.3-20.7,20.7-20.7
		c3.9,0,7.5,1,10.8,3v38.3c-3.4,0-7.6,0.1-10.8,0.1C183.8,208.2,174.5,198.9,174.5,187.5z"/>
</g>
<g>
	<path class="st1" d="M487.9,188.9c-5.5-4.7-14.5-7.5-15.6-7.9l0,0c-2.7-0.9-7.9-2.9-10.2-4.8c-0.5-0.4-2.6-2.5-1.6-5.9
		c1.1-2.2,2-2.9,9.2-2.9c12.2,0,22.4,0.1,22.4,0.1l0.1-14.7c0,0-10.3-0.1-22.5-0.1c-14.2,0-18.8,4-22.6,11.4l-0.4,0.9
		c-3.3,9.7,1,18,5.8,22.2c5.5,4.7,14.5,7.5,15.6,7.9l0,0c2.7,0.9,7.9,2.9,10.2,4.8c0.5,0.4,2.6,2.5,1.6,5.9c-1.1,2.2-2,2.8-9.2,2.8
		c-12.2,0-22.5-0.1-22.5-0.1v14.8c0,0,10.3,0,22.5,0c14.1,0,18.8-4,22.6-11.4l0.4-0.9C497,201.5,492.8,193.2,487.9,188.9z"/>
	<path class="st1" d="M611.3,153.9c-3.4-1-7-1.6-10.7-1.6c-19.5,0-35.3,15.9-35.3,35.3s15.9,35.3,35.3,35.3c4.2,0,10.2-0.1,13.6-0.1
		H626v-95.9c0,0-6.3-0.7-10.6,2.5c-4.5,3-4.1,10-4.1,10L611.3,153.9L611.3,153.9z M580.1,187.6c0-11.3,9.2-20.5,20.5-20.5
		c3.8,0,7.5,1,10.7,3v38c-3.3,0-7.6,0.1-10.7,0.1C589.3,208.1,580.1,198.9,580.1,187.6z"/>
	<path class="st1" d="M544.7,152.7c-3.4,0-7.6,0-10.7,0c-19.5,0-35.3,15.9-35.3,35.3s15.9,35.3,35.3,35.3c3.7,0,7.5-1.1,10.7-3.5
		v3.4h14.7v-56.4c0,0,0.2-5.4-3.7-9.7C551.9,152.7,544.7,152.7,544.7,152.7z M534.1,208.6c-11.3,0-20.5-9.2-20.5-20.5
		s9.2-20.5,20.5-20.5c3.1,0,7.3,0,10.7,0.1v36.1C541.4,207.1,537.9,208.6,534.1,208.6z"/>
	<path class="st1" d="M668.8,208.1c-11.3,0-20.5-9.2-20.5-20.5s9.2-20.5,20.5-20.5c4.5,0,8.7,1.4,12.3,4.1l8.8-11.9
		c-6.2-4.6-13.5-7-21.1-7c-19.5,0-35.3,15.9-35.3,35.3s15.9,35.3,35.3,35.3c7.4,0,14.5-2.3,20.6-6.7l-8.6-12
		C677.3,206.8,673.2,208.1,668.8,208.1z"/>
</g>
</svg>
