<?xml version="1.0" encoding="UTF-8"?>
<svg width="261.033537px" height="45.4459472px" viewBox="0 0 261.033537 45.4459472" version="1.1" xmlns="http://www.w3.org/2000/svg" xmlns:xlink="http://www.w3.org/1999/xlink">
    <title>C447F8FF-8C55-4C65-AD2D-29D6A577DD57</title>
    <g id="Symbols" stroke="none" stroke-width="1" fill="none" fill-rule="evenodd">
        <g id="Group" fill="#FAFAFA">
            <path d="M1.18174886e-14,22.7437631 C1.18174886e-14,14.4695239 6.02896829,9.10582107 13.5132048,9.10582107 C20.3737549,9.10582107 25.9453532,13.3053093 26.6937768,20.3737549 L19.7500685,20.3737549 C19.0848031,16.5484785 16.4237412,15.0932103 13.5132048,15.0932103 C10.1452984,15.0932103 6.90212922,17.712693 6.90212922,22.7853422 C6.90212922,27.8579914 10.1452984,30.4358951 13.5132048,30.4358951 C16.4237412,30.4358951 19.0848031,29.022206 19.7500685,25.1553505 L26.6937768,25.1553505 C25.9453532,32.223796 20.3737549,36.4232843 13.5132048,36.4232843 C6.02896829,36.3817052 1.18174886e-14,31.0180024 1.18174886e-14,22.7437631 Z" id="Path"></path>
            <path d="M28.2322032,22.7437631 C28.2322032,14.4695239 34.3027506,9.10582107 42.1611989,9.10582107 C50.0196473,9.10582107 56.0901946,14.4695239 56.0901946,22.7437631 C56.0901946,31.0180024 50.0196473,36.3817052 42.1611989,36.3817052 C34.3027506,36.3817052 28.2322032,31.0180024 28.2322032,22.7437631 Z M49.1464863,22.7437631 C49.1464863,17.671114 45.8617381,15.0516312 42.1611989,15.0516312 C38.4190807,15.0516312 35.1343324,17.671114 35.1343324,22.7437631 C35.1343324,27.8164123 38.4190807,30.394316 42.1611989,30.394316 C45.8617381,30.4358951 49.1464863,27.8164123 49.1464863,22.7437631 Z" id="Shape"></path>
            <path d="M57.0880928,28.9806269 C57.0880928,23.7000822 60.2481038,21.4548113 68.8133967,20.3737549 C73.0960431,19.7916476 74.1770995,19.500594 74.1770995,17.712693 C74.1770995,15.8416339 72.5555149,14.6358403 69.8112949,14.6358403 C66.5265467,14.6358403 65.0712784,16.2158457 64.9465412,18.6274331 L58.2107283,18.6274331 C58.2523074,12.723202 63.033903,9.06424198 69.7281367,9.06424198 C76.1728959,9.06424198 80.9129124,11.351092 80.9129124,18.8769076 L80.9129124,27.4006214 C80.9129124,30.6437906 80.9960705,32.8059033 81.3702824,35.7164397 L74.7592068,35.7164397 C74.5097322,34.5522252 74.384995,33.2632733 74.3434159,31.5169515 C72.9713059,34.1364343 69.9360322,36.3401261 65.4870694,36.3401261 C60.331262,36.3817052 57.0880928,33.5959061 57.0880928,28.9806269 Z M74.1770995,23.7832404 C72.9297268,24.2821895 71.1418258,24.6148223 68.8965549,24.9058759 C65.1960157,25.4464041 63.9070639,26.5274605 63.9070639,28.4816778 C63.9070639,30.0616833 64.863383,31.1843187 67.3997076,31.1843187 C70.5597185,31.1843187 74.1770995,28.4400987 74.1770995,23.7832404 Z" id="Shape"></path>
            <path d="M82.6592342,27.0264096 L89.3118889,27.0264096 C89.7692589,29.9785251 91.5987389,30.9348442 94.5924335,30.9348442 C97.2950745,30.9348442 98.7919218,30.0201042 98.7919218,28.4816778 C98.7919218,26.6937768 97.5029699,26.0285114 93.2619026,25.5711414 C85.4866124,24.6564014 83.1997624,21.9537604 83.1997624,17.2969021 C83.1997624,12.4737275 87.565567,9.10582107 93.8024308,9.10582107 C100.205611,9.10582107 104.030887,12.0163575 104.696153,18.128484 L98.0850772,18.128484 C97.8771818,15.883213 96.3387554,14.7605775 93.8024308,14.7605775 C91.3908435,14.7605775 89.8524171,15.6337385 89.8524171,17.2137439 C89.8524171,18.9184867 91.2661062,19.4590149 95.1329617,20.0827013 C103.365622,21.4132322 105.486156,24.1158732 105.486156,28.4400987 C105.486156,32.5148497 102.159828,36.4648634 94.6340126,36.4648634 C86.3597734,36.3817052 83.0750251,32.8059033 82.6592342,27.0264096 Z" id="Path"></path>
            <path d="M109.85196,26.1532487 L109.85196,15.5505803 L105.694051,15.5505803 L105.694051,9.68792836 L109.85196,9.68792836 L109.85196,2.70264096 L116.587773,2.70264096 L116.587773,9.72950745 L123.864114,9.72950745 L123.864114,15.6337385 L116.587773,15.6337385 L116.587773,25.4464041 C116.587773,29.6043133 118.209358,30.3527369 120.37147,30.3527369 C121.702001,30.3527369 122.783058,30.1448415 123.988851,29.6874714 L123.988851,35.7580188 C122.616741,36.1322306 121.327789,36.4232843 119.082519,36.4232843 C112.970392,36.3817052 109.85196,33.8869597 109.85196,26.1532487 Z" id="Path"></path>
            <path d="M125.028329,22.7437631 C125.028329,14.3863657 130.599927,9.10582107 137.959426,9.10582107 C144.65366,9.10582107 149.68473,13.1805721 150.557891,19.957964 L146.316824,19.957964 C145.5684,15.2595266 142.283652,12.8479393 138.001005,12.8479393 C133.094672,12.8479393 129.310975,16.4237412 129.310975,22.7853422 C129.310975,29.1469433 133.094672,32.7227451 138.001005,32.7227451 C142.283652,32.7227451 145.5684,30.3111578 146.316824,25.6127205 L150.557891,25.6127205 C149.68473,32.3485333 144.695239,36.4648634 137.959426,36.4648634 C130.641506,36.3817052 125.028329,31.0595815 125.028329,22.7437631 Z" id="Path"></path>
            <path d="M151.680526,29.1469433 C151.680526,24.2406104 154.632642,21.9537604 162.865302,20.9142831 C168.727954,20.2074385 170.016906,19.5421731 170.016906,17.1721649 C170.016906,14.2616284 167.52216,12.723202 163.738463,12.723202 C159.705291,12.723202 157.335283,14.6358403 156.877913,18.2532212 L152.803162,18.2532212 C153.218953,12.681623 157.418441,9.10582107 163.738463,9.10582107 C170.016906,9.10582107 174.133236,11.5174084 174.133236,17.712693 L174.133236,28.7727314 C174.133236,31.3506351 174.299552,33.6374852 174.549027,35.841177 L170.557434,35.841177 C170.307959,34.4274879 170.141643,32.8890615 170.100064,30.0616833 C168.935849,32.9722197 165.443206,36.4648634 159.913187,36.4648634 C154.923696,36.3817052 151.680526,33.6790642 151.680526,29.1469433 Z M170.058485,22.1200768 C168.520058,23.0763959 166.316367,23.5337659 162.990039,23.9495568 C157.875811,24.5732432 155.838436,25.9869323 155.838436,28.8558896 C155.838436,31.4753724 157.584757,33.0137988 160.703189,33.0137988 C165.567943,33.0137988 170.058485,29.2301014 170.058485,22.1200768 Z" id="Shape"></path>
            <path d="M177.5843,9.68792836 L181.659051,9.68792836 L181.659051,13.8874166 C183.613269,10.8521429 187.022754,9.06424198 191.222243,9.06424198 C198.20753,9.06424198 203.612812,14.3863657 203.612812,22.702184 C203.612812,31.0180024 198.249109,36.3401261 191.222243,36.3401261 C187.022754,36.3401261 183.613269,34.5938043 181.659051,31.6416888 L181.659051,45.4459472 L177.5843,45.4459472 L177.5843,9.68792836 Z M199.413324,22.7437631 C199.413324,16.4237412 195.504889,12.8063602 190.473819,12.8063602 C185.442749,12.8063602 181.575893,16.3821621 181.575893,22.7437631 C181.575893,29.1053642 185.442749,32.681166 190.473819,32.681166 C195.504889,32.681166 199.413324,29.1053642 199.413324,22.7437631 Z" id="Shape"></path>
            <path d="M205.06808,3.11843187 C205.06808,1.41368912 206.357032,0.166316367 208.020196,0.166316367 C209.724938,0.166316367 211.055469,1.45526821 211.055469,3.11843187 C211.055469,4.74001645 209.724938,6.07054738 208.020196,6.07054738 C206.357032,6.07054738 205.06808,4.74001645 205.06808,3.11843187 Z M205.98282,9.68792836 L210.057571,9.68792836 L210.057571,35.7580188 L205.98282,35.7580188 L205.98282,9.68792836 Z" id="Shape"></path>
            <path d="M216.585488,26.7353559 L216.585488,13.3884675 L211.762314,13.3884675 L211.762314,9.68792836 L216.585488,9.68792836 L216.585488,2.70264096 L220.743398,2.70264096 L220.743398,9.72950745 L229.391849,9.72950745 L229.391849,13.4300466 L220.743398,13.4300466 L220.743398,26.4858814 C220.743398,31.3922142 222.572878,32.681166 225.441835,32.681166 C226.938682,32.681166 228.310792,32.4316915 229.849219,31.766426 L229.849219,35.5917025 C228.518688,36.0490725 226.980261,36.4648634 224.984465,36.4648634 C219.204971,36.3817052 216.585488,33.6790642 216.585488,26.7353559 Z" id="Path"></path>
            <path d="M230.847117,29.1469433 C230.847117,24.2406104 233.799232,21.9537604 242.031893,20.9142831 C247.894544,20.2074385 249.183496,19.5421731 249.183496,17.1721649 C249.183496,14.2616284 246.688751,12.723202 242.905053,12.723202 C238.871882,12.723202 236.501873,14.6358403 236.044503,18.2532212 L231.969752,18.2532212 C232.385543,12.681623 236.585032,9.10582107 242.905053,9.10582107 C249.183496,9.10582107 253.299826,11.5174084 253.299826,17.712693 L253.299826,28.7727314 C253.299826,31.3506351 253.466143,33.6374852 253.715617,35.841177 L249.724024,35.841177 C249.47455,34.4274879 249.308234,32.8890615 249.266654,30.0616833 C248.10244,32.9722197 244.609796,36.4648634 239.079777,36.4648634 C234.090286,36.3817052 230.847117,33.6790642 230.847117,29.1469433 Z M249.225075,22.1200768 C247.686649,23.0763959 245.482957,23.5337659 242.15663,23.9495568 C237.042402,24.5732432 235.005026,25.9869323 235.005026,28.8558896 C235.005026,31.4753724 236.751348,33.0137988 239.86978,33.0137988 C244.692954,33.0137988 249.225075,29.2301014 249.225075,22.1200768 Z" id="Shape"></path>
            <polygon id="Path" points="256.834049 0 261.033537 0 261.033537 35.7995979 256.834049 35.7995979"></polygon>
        </g>
    </g>
</svg>